<svg width="121" height="121" viewBox="0 0 121 121" fill="none" xmlns="http://www.w3.org/2000/svg">
<path fill-rule="evenodd" clip-rule="evenodd" d="M60.5 121C93.9128 121 121 93.9128 121 60.5C121 27.0906 93.9128 0 60.5 0C27.0906 0 0 27.0906 0 60.5C0 93.9128 27.0906 121 60.5 121ZM50.5881 58.201C51.0586 59.6093 52.3695 60.5 53.7778 60.5C54.3103 60.5001 54.8353 60.3737 55.3094 60.1311C55.7836 59.8886 56.1933 59.5368 56.5048 59.1048C56.8163 58.6729 57.0207 58.173 57.1011 57.6466C57.1816 57.1201 57.1358 56.5821 56.9675 56.0768C56.544 54.8096 52.5812 43.6944 43.6944 43.6944C34.8077 43.6944 30.8449 54.8096 30.4248 56.0734C30.2783 56.4938 30.2168 56.939 30.2438 57.3833C30.2708 57.8276 30.3858 58.2622 30.5821 58.6617C30.7784 59.0612 31.0521 59.4177 31.3873 59.7106C31.7225 60.0035 32.1126 60.2268 32.5348 60.3677C32.9571 60.5086 33.4031 60.5643 33.847 60.5314C34.2909 60.4985 34.7239 60.3777 35.1208 60.1762C35.5176 59.9746 35.8705 59.6962 36.1589 59.3571C36.4473 59.0181 36.6655 58.6251 36.8008 58.201C37.3487 56.5574 40.1249 50.4167 43.6944 50.4167C47.1698 50.4167 49.9058 56.1877 50.5881 58.201ZM85.4243 59.8652C85.9963 60.2779 86.6836 60.5 87.3889 60.5C87.9212 60.4996 88.4458 60.3728 88.9194 60.13C89.3931 59.8872 89.8024 59.5354 90.1135 59.1035C90.4246 58.6716 90.6287 58.1719 90.709 57.6457C90.7893 57.1195 90.7434 56.5818 90.5752 56.0768C90.1551 54.8096 86.1957 43.6944 77.3055 43.6944C68.4154 43.6944 64.456 54.8096 64.0325 56.0734C63.7639 56.9153 63.8377 57.8291 64.2379 58.617C64.6381 59.4049 65.3325 60.0035 66.1707 60.2833C67.009 60.563 67.9237 60.5013 68.7169 60.1116C69.51 59.7219 70.1178 59.0355 70.4085 58.201C70.9564 56.5574 73.7361 50.4167 77.3055 50.4167C80.7776 50.4167 83.5202 56.1877 84.2025 58.201C84.4249 58.8703 84.8524 59.4526 85.4243 59.8652ZM30.25 70.5833C40.2426 72.5261 48.3227 73.9444 60.5 73.9444C72.6773 73.9444 80.7574 72.5261 90.75 70.5833C93.0322 70.1397 97.4722 70.5833 97.4722 77.3056C97.4722 90.75 82.0246 107.556 60.5 107.556C38.9721 107.556 23.5278 90.75 23.5278 77.3056C23.5278 70.5833 27.9678 70.143 30.25 70.5833Z" fill="#249557"/>
</svg>
