<svg width="121" height="108" viewBox="0 0 121 108" fill="none" xmlns="http://www.w3.org/2000/svg">
<path d="M45.2876 82.5388C44.7982 81.7231 44.5496 80.7856 44.5704 79.8346C44.5912 78.8836 44.8806 77.9579 45.4053 77.1644L60.1773 54.8264L40.0275 37.5537C39.1231 36.7787 38.5223 35.7084 38.3316 34.5328C38.1408 33.3571 38.3725 32.1518 38.9855 31.1306L53.4518 7.02472C47.6672 2.47874 40.5246 0.00515563 33.1674 0C14.8494 0 0 14.846 0 33.1674C0 35.7622 0.329389 38.2763 0.894056 40.6997C5.49878 69.3162 37.3117 99.5023 60.1135 107.791C60.1975 107.761 60.2882 107.717 60.3723 107.683L45.2876 82.5388Z" fill="#249557"/>
<path d="M87.0629 0.0067215C77.7694 0.0067215 69.4237 3.87536 63.4107 10.0329L49.8251 32.6767L70.1229 50.0738C71.0551 50.874 71.6631 51.9869 71.8327 53.2037C72.0023 54.4204 71.7217 55.6572 71.0438 56.6818L55.5692 80.0818L69.5548 103.391C90.8575 91.5298 115.337 65.535 119.33 40.7098C119.901 38.2864 120.23 35.7723 120.23 33.1775C120.227 14.8528 105.378 0.0067215 87.0629 0.0067215Z" fill="#249557"/>
</svg>
