<svg width="616" height="1200" viewBox="0 0 616 1200" fill="none" xmlns="http://www.w3.org/2000/svg">
<path d="M342.918 -156.589L1904.33 223.776C1904.33 223.776 1978.04 1017.93 1685.65 1121.46C1529.71 1176.68 1511.96 1047.45 1348.11 986.404C1184.26 925.358 1077.77 1026.21 892.798 981.15C707.826 936.09 659.647 797.56 486.08 776.411C312.513 755.262 237.314 861.848 124.239 741.096C-87.7753 514.686 342.918 -156.589 342.918 -156.589Z" fill="#249557"/>
<rect opacity="0.16" x="430.273" y="224.105" width="107.127" height="107.127" rx="15.0115" transform="rotate(45 430.273 224.105)" fill="white"/>
<rect opacity="0.16" x="485.365" y="348.06" width="107.127" height="107.127" rx="15.0115" transform="rotate(45 485.365 348.06)" fill="white"/>
<rect opacity="0.16" x="395.842" y="437.583" width="107.127" height="107.127" rx="15.0115" transform="rotate(45 395.842 437.583)" fill="white"/>
<rect opacity="0.16" x="340.75" y="313.628" width="107.127" height="107.127" rx="15.0115" transform="rotate(45 340.75 313.628)" fill="white"/>
<rect opacity="0.16" x="561.273" y="85.1055" width="107.127" height="107.127" rx="15.0115" transform="rotate(45 561.273 85.1055)" fill="white"/>
<rect opacity="0.16" x="616.365" y="209.06" width="107.127" height="107.127" rx="15.0115" transform="rotate(45 616.365 209.06)" fill="white"/>
<rect opacity="0.16" x="526.842" y="298.583" width="107.127" height="107.127" rx="15.0115" transform="rotate(45 526.842 298.583)" fill="white"/>
<rect opacity="0.16" x="471.75" y="174.628" width="107.127" height="107.127" rx="15.0115" transform="rotate(45 471.75 174.628)" fill="white"/>
</svg>
