<svg width="496" height="426" viewBox="0 0 496 426" fill="none" xmlns="http://www.w3.org/2000/svg">
<path d="M77.7793 230.007V213.686C77.7793 198.273 77.7793 199.633 88.5907 199.633H121.025H495V224.567V334.728C495 345.608 495 348.782 485.663 357.395C476.326 366.009 474.36 370.089 466.989 376.889C459.618 383.689 458.143 384.142 444.875 384.142H331.847C312.19 384.142 306.293 387.316 306.293 376.889V293.928C306.293 260.834 306.293 264.914 298.43 264.914H125.448C111.688 264.914 110.213 264.007 105.299 259.474L83.6764 239.527C79.745 235.9 77.7793 236.353 77.7793 230.007Z" stroke="#249557" stroke-width="1.8678"/>
<path d="M210.129 1.81762H53.1789H18.7384C-0.449777 1.81762 1.02624 13.6257 1.02624 26.4179V82.0145C1.02624 113.011 1.02624 113.503 7.91432 124.327C14.8024 135.151 11.3584 135.151 28.0866 135.151H114.68H463.512C486.144 135.151 488.604 135.643 488.604 119.899C488.604 104.155 488.604 102.679 484.176 88.4106C479.748 74.1425 478.272 72.6664 469.416 52.9862C460.56 33.306 460.56 34.29 440.879 34.29H395.123H257.853C243.093 34.29 238.173 32.814 234.237 17.0698C230.301 1.32561 229.809 1.81762 210.129 1.81762Z" stroke="#249557" stroke-width="1.8678"/>
<g filter="url(#filter0_bd_17_364)">
<path d="M353.499 297.804C352.303 298.494 350.833 299.026 349.195 299.327L296.431 309.017C281.454 311.764 268 312.91 255.291 312.532C227.488 311.714 201.393 305.124 181.82 293.959L117.376 257.227C103.999 249.913 106.577 231.944 111.215 226.383L154.32 191.136C156.759 188.165 160.969 185.713 166.134 184.239L251.721 159.643C261.29 156.883 272.727 157.884 280.147 162.123L344.638 198.882C364.192 210.025 377.362 211.297 379.146 227.323C381.656 243.01 376.704 256.142 372.138 264.787L356.07 295.303C355.578 296.254 354.685 297.108 353.499 297.804Z" fill="#249557" shape-rendering="crispEdges"/>
<path d="M353.773 297.959L353.771 297.961C352.534 298.675 351.011 299.226 349.312 299.538L296.548 309.229L296.548 309.229C281.536 311.982 268.036 313.133 255.272 312.754C227.376 311.933 201.191 305.32 181.55 294.117C181.55 294.117 181.55 294.117 181.55 294.117L117.112 257.388C117.111 257.387 117.11 257.387 117.109 257.386C110.31 253.668 107.605 247.274 107.156 241.157C106.707 235.036 108.512 229.113 110.869 226.287C110.878 226.275 110.889 226.265 110.901 226.255L153.987 191.023C156.465 188.015 160.732 185.533 165.964 184.04L251.549 159.444C261.26 156.643 272.876 157.658 280.417 161.965L353.773 297.959ZM353.773 297.959C355.001 297.239 355.927 296.354 356.438 295.368L353.773 297.959ZM344.908 198.725L280.417 161.965L356.438 295.367L372.506 264.852C377.08 256.19 382.044 243.029 379.529 227.306C378.632 219.251 374.864 214.876 368.838 211.121C365.854 209.261 362.321 207.556 358.34 205.634L358.275 205.603C354.263 203.667 349.784 201.503 344.908 198.725Z" stroke="url(#paint0_linear_17_364)" stroke-width="0.627473" stroke-linecap="round" stroke-linejoin="round" shape-rendering="crispEdges"/>
</g>
<g filter="url(#filter1_b_17_364)">
<mask id="path-5-outside-1_17_364" maskUnits="userSpaceOnUse" x="74.11" y="121.439" width="364.605" height="210.486" fill="black">
<rect fill="white" x="74.11" y="121.439" width="364.605" height="210.486"/>
<path d="M353.498 281.986C352.302 282.677 350.832 283.208 349.194 283.509L296.43 293.2C281.452 295.946 267.999 297.092 255.29 296.715C227.487 295.896 201.391 289.306 181.819 278.141L117.375 241.409C109.936 237.171 108.076 230.586 112.713 225.024L154.319 175.318C156.757 172.348 160.967 169.896 166.133 168.421L251.72 143.825C261.288 141.065 272.726 142.067 280.146 146.305L344.637 183.065C364.191 194.207 375.935 209.17 377.718 225.196C378.534 232.548 376.703 240.325 372.137 248.97L356.069 279.486C355.577 280.436 354.684 281.29 353.498 281.986Z"/>
</mask>
<path d="M353.498 281.986C352.302 282.677 350.832 283.208 349.194 283.509L296.43 293.2C281.452 295.946 267.999 297.092 255.29 296.715C227.487 295.896 201.391 289.306 181.819 278.141L117.375 241.409C109.936 237.171 108.076 230.586 112.713 225.024L154.319 175.318C156.757 172.348 160.967 169.896 166.133 168.421L251.72 143.825C261.288 141.065 272.726 142.067 280.146 146.305L344.637 183.065C364.191 194.207 375.935 209.17 377.718 225.196C378.534 232.548 376.703 240.325 372.137 248.97L356.069 279.486C355.577 280.436 354.684 281.29 353.498 281.986Z" fill="#249557"/>
<path d="M354.949 282.824C355.751 282.361 355.751 281.611 354.949 281.148C354.148 280.686 352.848 280.686 352.046 281.148L354.949 282.824ZM349.194 283.509L348.572 282.38L348.572 282.38L349.194 283.509ZM296.43 293.2L297.051 294.329L297.052 294.329L296.43 293.2ZM255.29 296.715L255.396 295.531L255.395 295.531L255.29 296.715ZM181.819 278.141L183.262 277.299L183.261 277.298L181.819 278.141ZM117.375 241.409L118.817 240.566L118.817 240.566L117.375 241.409ZM112.713 225.024L110.865 224.508L110.864 224.51L112.713 225.024ZM154.319 175.318L156.167 175.834L156.174 175.825L154.319 175.318ZM166.133 168.421L167.043 169.484L167.048 169.482L166.133 168.421ZM251.72 143.825L252.634 144.886L252.637 144.885L251.72 143.825ZM280.146 146.305L278.702 147.148L278.704 147.149L280.146 146.305ZM344.637 183.065L343.195 183.908L343.195 183.908L344.637 183.065ZM377.718 225.196L379.767 225.12L379.767 225.12L377.718 225.196ZM372.137 248.97L370.174 248.624L370.173 248.625L372.137 248.97ZM356.069 279.486L354.105 279.141L354.102 279.146L356.069 279.486ZM352.035 281.155C351.24 281.621 351.25 282.372 352.058 282.831C352.866 283.29 354.165 283.284 354.961 282.817L352.035 281.155ZM352.046 281.148C351.071 281.711 349.881 282.139 348.572 282.38L349.816 284.638C351.782 284.277 353.533 283.642 354.949 282.824L352.046 281.148ZM348.572 282.38L295.808 292.07L297.052 294.329L349.817 284.638L348.572 282.38ZM295.809 292.07C281.013 294.783 267.809 295.9 255.396 295.531L255.185 297.898C268.189 298.284 281.891 297.109 297.051 294.329L295.809 292.07ZM255.395 295.531C228.087 294.727 202.47 288.256 183.262 277.299L180.376 278.984C200.312 290.356 226.886 297.065 255.186 297.898L255.395 295.531ZM183.261 277.298L118.817 240.566L115.933 242.253L180.377 278.985L183.261 277.298ZM118.817 240.566C112.024 236.696 110.292 230.659 114.563 225.538L110.864 224.51C105.859 230.512 107.848 237.646 115.933 242.253L118.817 240.566ZM114.561 225.539L156.167 175.833L152.471 174.802L110.865 224.508L114.561 225.539ZM156.174 175.825C158.411 173.101 162.284 170.842 167.043 169.484L165.223 167.359C159.651 168.949 155.104 171.595 152.464 174.81L156.174 175.825ZM167.048 169.482L252.634 144.886L250.805 142.764L165.218 167.361L167.048 169.482ZM252.637 144.885C261.444 142.345 271.927 143.277 278.702 147.148L281.59 145.463C273.525 140.856 261.133 139.785 250.802 142.765L252.637 144.885ZM278.704 147.149L343.195 183.908L346.079 182.222L281.588 145.462L278.704 147.149ZM343.195 183.908C362.386 194.843 373.919 209.532 375.67 225.272L379.767 225.12C377.952 208.808 365.996 193.571 346.079 182.221L343.195 183.908ZM375.67 225.272C376.467 232.453 374.684 240.085 370.174 248.624L374.1 249.315C378.722 240.564 380.602 232.643 379.767 225.12L375.67 225.272ZM370.173 248.625L354.105 279.141L358.033 279.83L374.101 249.314L370.173 248.625ZM354.102 279.146C353.709 279.906 352.993 280.593 352.035 281.155L354.961 282.817C356.375 281.988 357.445 280.966 358.036 279.825L354.102 279.146Z" fill="url(#paint1_linear_17_364)" mask="url(#path-5-outside-1_17_364)"/>
</g>
<g filter="url(#filter2_d_17_364)">
<path d="M120.33 170.243L124.187 168.016C190.182 129.917 300.047 136.172 351.88 180.98L339.632 203.694C337.607 207.449 333.586 210.74 328.138 213.1L259.873 223.39C254.839 224.149 249.535 224.064 244.582 223.145L178.427 210.866L120.33 170.243Z" fill="#249557"/>
</g>
<g filter="url(#filter3_b_17_364)">
<path d="M336.202 214.506L336.2 214.507C334.963 215.221 333.44 215.772 331.742 216.084L278.977 225.775L278.977 225.775C263.965 228.528 250.465 229.679 237.701 229.3C209.805 228.479 183.62 221.866 163.98 210.663C163.98 210.663 163.98 210.663 163.98 210.663L99.5415 173.934C99.5405 173.934 99.5395 173.933 99.5386 173.933C92.7401 170.214 90.0345 163.82 89.5856 157.703C89.1363 151.582 90.9414 145.659 93.2982 142.833C93.3074 142.822 93.3182 142.811 93.3305 142.801L136.417 107.569C138.895 104.561 143.162 102.079 148.394 100.586L233.979 75.9902C243.69 73.1893 255.306 74.2038 262.847 78.5112L336.202 214.506ZM336.202 214.506C337.431 213.785 338.357 212.9 338.867 211.914L336.202 214.506ZM327.338 115.271L262.847 78.5114L338.868 211.913L354.935 181.398C359.51 172.737 364.473 159.576 361.958 143.852C361.061 135.797 357.294 131.423 351.268 127.667C348.284 125.808 344.751 124.102 340.769 122.181L340.705 122.149C336.692 120.213 332.214 118.049 327.338 115.271Z" fill="white" fill-opacity="0.5" stroke="url(#paint2_linear_17_364)" stroke-width="0.627473" stroke-linecap="round" stroke-linejoin="round"/>
</g>
<g filter="url(#filter4_b_17_364)">
<path d="M336.661 198.948L336.655 198.951C335.349 199.705 333.738 200.289 331.937 200.62L279.173 210.31L279.172 210.31C264.104 213.074 250.525 214.234 237.669 213.853C209.618 213.027 183.284 206.377 163.529 195.109L336.661 198.948ZM336.661 198.948C337.96 198.186 338.941 197.249 339.483 196.203C339.483 196.203 339.484 196.202 339.484 196.202L355.55 165.689L336.661 198.948ZM361.174 141.704V141.704C362 149.141 360.144 156.99 355.551 165.688L361.174 141.704ZM361.174 141.704C359.375 125.535 347.525 110.435 327.79 99.1893L263.299 62.4303M361.174 141.704L263.299 62.4303M263.299 62.4303L263.298 62.4299C255.557 58.0077 243.643 56.9716 233.694 59.8407L263.299 62.4303ZM99.0856 158.377L163.529 195.109L233.692 59.8411L148.11 84.4363C148.109 84.4364 148.109 84.4365 148.109 84.4366C142.742 85.9685 138.364 88.5166 135.825 91.6083C135.824 91.609 135.824 91.6097 135.823 91.6103L94.2208 141.312L94.2201 141.313C89.399 147.095 91.3233 153.954 99.0854 158.377C99.0855 158.377 99.0855 158.377 99.0856 158.377Z" fill="white" fill-opacity="0.5" stroke="white" stroke-width="1.67587" stroke-linecap="round" stroke-linejoin="round"/>
</g>
<g filter="url(#filter5_i_17_364)">
<path opacity="0.78" d="M212.097 156.829L212.097 156.829C212.13 153.756 216.478 151.214 221.803 151.153C221.803 151.153 221.803 151.153 221.803 151.153L247.553 150.859L247.946 150.854L247.948 150.628L248.398 113.875C248.441 110.796 252.79 108.255 258.104 108.199C263.432 108.143 267.706 110.58 267.655 113.637L267.655 113.638L267.139 156.194V156.194C267.122 157.735 266.028 159.133 264.268 160.16C262.506 161.187 260.102 161.84 257.432 161.87C257.432 161.87 257.432 161.87 257.432 161.87L221.638 162.273C221.638 162.273 221.637 162.273 221.637 162.273C216.32 162.324 212.054 159.892 212.097 156.829Z" fill="#249557" stroke="url(#paint3_linear_17_364)" stroke-width="0.659372"/>
</g>
<defs>
<filter id="filter0_bd_17_364" x="56.5053" y="142.594" width="374.283" height="283.397" filterUnits="userSpaceOnUse" color-interpolation-filters="sRGB">
<feFlood flood-opacity="0" result="BackgroundImageFix"/>
<feGaussianBlur in="BackgroundImageFix" stdDeviation="7.52968"/>
<feComposite in2="SourceAlpha" operator="in" result="effect1_backgroundBlur_17_364"/>
<feColorMatrix in="SourceAlpha" type="matrix" values="0 0 0 0 0 0 0 0 0 0 0 0 0 0 0 0 0 0 127 0" result="hardAlpha"/>
<feOffset dy="62.7473"/>
<feGaussianBlur stdDeviation="25.0989"/>
<feComposite in2="hardAlpha" operator="out"/>
<feColorMatrix type="matrix" values="0 0 0 0 0.00784314 0 0 0 0 0.52549 0 0 0 0 0.482353 0 0 0 0.5 0"/>
<feBlend mode="normal" in2="effect1_backgroundBlur_17_364" result="effect2_dropShadow_17_364"/>
<feBlend mode="normal" in="SourceGraphic" in2="effect2_dropShadow_17_364" result="shape"/>
</filter>
<filter id="filter1_b_17_364" x="93.0754" y="126.035" width="301.943" height="186.994" filterUnits="userSpaceOnUse" color-interpolation-filters="sRGB">
<feFlood flood-opacity="0" result="BackgroundImageFix"/>
<feGaussianBlur in="BackgroundImageFix" stdDeviation="7.52968"/>
<feComposite in2="SourceAlpha" operator="in" result="effect1_backgroundBlur_17_364"/>
<feBlend mode="normal" in="SourceGraphic" in2="effect1_backgroundBlur_17_364" result="shape"/>
</filter>
<filter id="filter2_d_17_364" x="95.7506" y="137.405" width="280.709" height="130.071" filterUnits="userSpaceOnUse" color-interpolation-filters="sRGB">
<feFlood flood-opacity="0" result="BackgroundImageFix"/>
<feColorMatrix in="SourceAlpha" type="matrix" values="0 0 0 0 0 0 0 0 0 0 0 0 0 0 0 0 0 0 127 0" result="hardAlpha"/>
<feOffset dy="18.9932"/>
<feGaussianBlur stdDeviation="12.2897"/>
<feComposite in2="hardAlpha" operator="out"/>
<feColorMatrix type="matrix" values="0 0 0 0 0.0117647 0 0 0 0 0.541176 0 0 0 0 0.498039 0 0 0 0.5 0"/>
<feBlend mode="normal" in2="BackgroundImageFix" result="effect1_dropShadow_17_364"/>
<feBlend mode="normal" in="SourceGraphic" in2="effect1_dropShadow_17_364" result="shape"/>
</filter>
<filter id="filter3_b_17_364" x="77.9603" y="63.027" width="296.233" height="177.738" filterUnits="userSpaceOnUse" color-interpolation-filters="sRGB">
<feFlood flood-opacity="0" result="BackgroundImageFix"/>
<feGaussianBlur in="BackgroundImageFix" stdDeviation="5.58624"/>
<feComposite in2="SourceAlpha" operator="in" result="effect1_backgroundBlur_17_364"/>
<feBlend mode="normal" in="SourceGraphic" in2="effect1_backgroundBlur_17_364" result="shape"/>
</filter>
<filter id="filter4_b_17_364" x="68.2215" y="35.2957" width="316.514" height="201.565" filterUnits="userSpaceOnUse" color-interpolation-filters="sRGB">
<feFlood flood-opacity="0" result="BackgroundImageFix"/>
<feGaussianBlur in="BackgroundImageFix" stdDeviation="11.1725"/>
<feComposite in2="SourceAlpha" operator="in" result="effect1_backgroundBlur_17_364"/>
<feBlend mode="normal" in="SourceGraphic" in2="effect1_backgroundBlur_17_364" result="shape"/>
</filter>
<filter id="filter5_i_17_364" x="211.692" y="107.965" width="56.3672" height="55.8062" filterUnits="userSpaceOnUse" color-interpolation-filters="sRGB">
<feFlood flood-opacity="0" result="BackgroundImageFix"/>
<feBlend mode="normal" in="SourceGraphic" in2="BackgroundImageFix" result="shape"/>
<feColorMatrix in="SourceAlpha" type="matrix" values="0 0 0 0 0 0 0 0 0 0 0 0 0 0 0 0 0 0 127 0" result="hardAlpha"/>
<feOffset dy="2.93836"/>
<feGaussianBlur stdDeviation="0.631983"/>
<feComposite in2="hardAlpha" operator="arithmetic" k2="-1" k3="1"/>
<feColorMatrix type="matrix" values="0 0 0 0 1 0 0 0 0 1 0 0 0 0 1 0 0 0 1 0"/>
<feBlend mode="normal" in2="shape" result="effect1_innerShadow_17_364"/>
</filter>
<linearGradient id="paint0_linear_17_364" x1="126.389" y1="232.032" x2="385.105" y2="245.409" gradientUnits="userSpaceOnUse">
<stop stop-color="white" stop-opacity="0.25"/>
<stop offset="1" stop-color="white" stop-opacity="0"/>
</linearGradient>
<linearGradient id="paint1_linear_17_364" x1="243.787" y1="207.235" x2="251.957" y2="305.065" gradientUnits="userSpaceOnUse">
<stop stop-color="white" stop-opacity="0.43"/>
<stop offset="0.846595" stop-color="white"/>
<stop offset="1" stop-color="white" stop-opacity="0"/>
</linearGradient>
<linearGradient id="paint2_linear_17_364" x1="108.818" y1="148.578" x2="367.535" y2="161.956" gradientUnits="userSpaceOnUse">
<stop stop-color="white" stop-opacity="0.25"/>
<stop offset="1" stop-color="white" stop-opacity="0"/>
<stop offset="1" stop-color="white" stop-opacity="0"/>
</linearGradient>
<linearGradient id="paint3_linear_17_364" x1="205.478" y1="142.817" x2="274.606" y2="174.093" gradientUnits="userSpaceOnUse">
<stop stop-color="white" stop-opacity="0.25"/>
<stop offset="1" stop-color="white" stop-opacity="0"/>
</linearGradient>
</defs>
</svg>
