<svg width="250" height="220" viewBox="0 0 250 220" fill="none" xmlns="http://www.w3.org/2000/svg">
<path d="M119.906 205.914L196.409 66.2501L249.268 84.1393L232.123 117.477L233.209 115.614L236.421 116.68C236.741 116.787 237.033 116.962 237.279 117.193C237.525 117.424 237.718 117.705 237.845 118.018C237.972 118.33 238.03 118.666 238.014 119.003C237.999 119.34 237.911 119.669 237.757 119.969L229.304 136.407C228.765 137.458 227.905 138.31 226.85 138.84C225.794 139.37 224.597 139.551 223.433 139.355L221.088 138.963L179.914 219.031L119.906 205.914Z" fill="#303030"/>
<path d="M70.4855 5.94714C71.3077 6.39643 72.2746 6.50131 73.1741 6.23882C74.0735 5.97632 74.8322 5.36786 75.2838 4.54684L77.2429 0.968994L196.41 66.2502L119.907 205.915L0.733573 140.64L42.383 64.6058C42.832 63.7845 42.9367 62.8186 42.6742 61.9202C42.4116 61.0217 41.8033 60.2642 40.9827 59.8139C40.5756 59.591 40.2163 59.2899 39.9256 58.9281C39.6348 58.5662 39.4182 58.1506 39.2882 57.705C39.1581 57.2594 39.1172 56.7925 39.1677 56.331C39.2182 55.8696 39.3591 55.4226 39.5824 55.0156L65.6936 7.34745C66.1439 6.52687 66.9014 5.91852 67.7998 5.65598C68.6983 5.39344 69.6642 5.49815 70.4855 5.94714Z" fill="#5BD793" stroke="#303030" stroke-width="0.642342" stroke-linecap="round" stroke-linejoin="round"/>
<path d="M64.5564 11.1003L161.34 45.6014L115.129 175.233L18.3457 140.732L64.5564 11.1003Z" fill="white" stroke="#303030" stroke-width="0.642342" stroke-linecap="round" stroke-linejoin="round"/>
<path d="M64.5515 11.105L161.335 45.6061L144.311 93.3625L47.5275 58.8614L64.5515 11.105Z" fill="white" stroke="#303030" stroke-width="0.642342" stroke-linecap="round" stroke-linejoin="round"/>
<path d="M72.0419 60.168C64.815 55.5799 62.6759 46.0021 67.264 38.7752C71.8521 31.5483 81.4299 29.4092 88.6568 33.9972C95.8837 38.5853 98.0228 48.1632 93.4347 55.3901C88.8467 62.6169 79.2688 64.7561 72.0419 60.168Z" fill="#303030" stroke="#303030" stroke-width="0.642342" stroke-linecap="round" stroke-linejoin="round"/>
<path d="M75.1487 61.7024C73 60.9388 71.0468 59.7096 69.4288 58.1027C67.8108 56.4958 66.5682 54.5511 65.7898 52.4077C68.4812 46.3826 75.0588 43.2415 80.9811 45.342C86.9035 47.4424 90.006 54.0521 88.2781 60.4177C86.3196 61.5862 84.1269 62.3073 81.8572 62.5293C79.5874 62.7514 77.2966 62.4691 75.1487 61.7024Z" fill="white" stroke="#303030" stroke-width="0.642342" stroke-linecap="round" stroke-linejoin="round"/>
<path d="M76.1856 50.0915C72.9342 47.2189 72.627 42.2543 75.4996 39.0028C78.3723 35.7514 83.3368 35.4443 86.5883 38.3169C89.8398 41.1895 90.1469 46.154 87.2743 49.4055C84.4016 52.657 79.4371 52.9641 76.1856 50.0915Z" fill="white" stroke="#303030" stroke-width="0.642342" stroke-linecap="round" stroke-linejoin="round"/>
<path d="M112.894 47.4959L146.765 59.5699L145.378 63.4604L111.507 51.3863L112.894 47.4959Z" fill="white" stroke="#303030" stroke-width="0.642342" stroke-linecap="round" stroke-linejoin="round"/>
<path d="M109.557 56.8435L143.428 68.9176L142.041 72.8081L108.17 60.734L109.557 56.8435Z" fill="white" stroke="#303030" stroke-width="0.642342" stroke-linecap="round" stroke-linejoin="round"/>
<path d="M106.789 64.6234L140.659 76.6975L139.965 78.6458L106.094 66.5717L106.789 64.6234Z" fill="#303030"/>
<path d="M105.123 69.2985L138.993 81.3726L138.299 83.3208L104.428 71.2467L105.123 69.2985Z" fill="#303030"/>
<path d="M96.6578 93.0465L130.528 105.121L129.834 107.069L95.9632 94.9948L96.6578 93.0465Z" fill="#303030"/>
<path d="M95.1333 97.3331L129.004 109.407L128.309 111.355L94.4388 99.2814L95.1333 97.3331Z" fill="#303030"/>
<path d="M93.604 101.613L127.475 113.688L126.78 115.636L92.9095 103.562L93.604 101.613Z" fill="#303030"/>
<path d="M50.7183 76.6676L84.5889 88.7417L83.8944 90.69L50.0238 78.6159L50.7183 76.6676Z" fill="#303030"/>
<path d="M49.189 80.9547L83.0596 93.0288L82.3651 94.9771L48.4945 82.903L49.189 80.9547Z" fill="#303030"/>
<path d="M47.6656 85.2369L81.5361 97.311L80.8416 99.2593L46.9711 87.1852L47.6656 85.2369Z" fill="#303030"/>
<path d="M132.701 101.521L50.9375 72.3845" stroke="#303030" stroke-width="0.642342" stroke-linecap="round" stroke-linejoin="round"/>
<path d="M88.7466 115.238L122.617 127.312L121.923 129.26L88.0521 117.186L88.7466 115.238Z" fill="#303030"/>
<path d="M87.2222 119.526L121.093 131.601L120.398 133.549L86.5277 121.475L87.2222 119.526Z" fill="#303030"/>
<path d="M85.6929 123.807L119.563 135.881L118.869 137.829L84.9984 125.755L85.6929 123.807Z" fill="#303030"/>
<path d="M42.8062 98.8612L76.6768 110.935L75.9822 112.884L42.1117 100.809L42.8062 98.8612Z" fill="#303030"/>
<path d="M41.2769 103.148L75.1475 115.222L74.453 117.17L40.5824 105.096L41.2769 103.148Z" fill="#303030"/>
<path d="M39.7544 107.43L73.625 119.504L72.9305 121.453L39.0599 109.379L39.7544 107.43Z" fill="#303030"/>
<path d="M124.795 123.714L43.0312 94.5774" stroke="#303030" stroke-width="0.642342" stroke-linecap="round" stroke-linejoin="round"/>
<path d="M36.7011 115.988L116.906 144.58L109.968 164.044L29.7625 135.453L36.7011 115.988Z" fill="#303030" stroke="#303030" stroke-width="0.642342" stroke-linecap="round" stroke-linejoin="round"/>
<path d="M77.225 19.1234L171.658 59.6171L117.421 186.101L22.988 145.607L77.225 19.1234Z" fill="white" stroke="#303030" stroke-width="0.642342" stroke-linecap="round" stroke-linejoin="round"/>
<path d="M77.2202 19.1256L171.653 59.6193L151.672 106.216L57.2392 65.7223L77.2202 19.1256Z" fill="white" stroke="#303030" stroke-width="0.642342" stroke-linecap="round" stroke-linejoin="round"/>
<path d="M77.6337 64.312C73.0646 57.0732 75.2288 47.5009 82.4677 42.9318C89.7065 38.3626 99.2788 40.5269 103.848 47.7657C108.417 55.0046 106.253 64.5768 99.014 69.146C91.7752 73.7151 82.2029 71.5509 77.6337 64.312Z" fill="#303030" stroke="#303030" stroke-width="0.642342" stroke-linecap="round" stroke-linejoin="round"/>
<path d="M84.6284 70.2905C82.532 69.393 80.66 68.0431 79.1464 66.3374C77.6328 64.6317 76.5151 62.6124 75.8733 60.4241C78.9309 54.5852 85.6947 51.8553 91.4694 54.3347C97.244 56.8141 99.929 63.5909 97.8093 69.8344C95.7814 70.8764 93.5484 71.4575 91.2699 71.5364C88.9913 71.6152 86.7235 71.1898 84.6284 70.2905Z" fill="white" stroke="#303030" stroke-width="0.642342" stroke-linecap="round" stroke-linejoin="round"/>
<path d="M86.5968 58.9458C83.4242 55.9863 83.2515 51.0152 86.211 47.8427C89.1705 44.6701 94.1415 44.4974 97.3141 47.4569C100.487 50.4164 100.659 55.3874 97.6999 58.56C94.7404 61.7326 89.7694 61.9053 86.5968 58.9458Z" fill="white" stroke="#303030" stroke-width="0.642342" stroke-linecap="round" stroke-linejoin="round"/>
<path d="M123.191 58.4791L156.239 72.6504L154.612 76.4464L121.563 62.2751L123.191 58.4791Z" fill="white" stroke="#303030" stroke-width="0.642342" stroke-linecap="round" stroke-linejoin="round"/>
<path d="M119.28 67.5951L152.328 81.7664L150.7 85.5623L117.652 71.3911L119.28 67.5951Z" fill="white" stroke="#303030" stroke-width="0.642342" stroke-linecap="round" stroke-linejoin="round"/>
<path d="M116.02 75.1889L149.068 89.3601L148.253 91.2611L115.205 77.0898L116.02 75.1889Z" fill="#303030"/>
<path d="M114.067 79.7479L147.115 93.9192L146.3 95.8201L113.252 81.6489L114.067 79.7479Z" fill="#303030"/>
<path d="M104.129 102.92L137.177 117.091L136.362 118.992L103.314 104.821L104.129 102.92Z" fill="#303030"/>
<path d="M102.336 107.097L135.384 121.269L134.569 123.169L101.521 108.998L102.336 107.097Z" fill="#303030"/>
<path d="M100.549 111.284L133.597 125.455L132.782 127.356L99.7335 113.185L100.549 111.284Z" fill="#303030"/>
<path d="M59.3084 83.7074L92.3564 97.8787L91.5413 99.7796L58.4932 85.6084L59.3084 83.7074Z" fill="#303030"/>
<path d="M57.5183 87.879L90.5664 102.05L89.7513 103.951L56.7032 89.78L57.5183 87.879Z" fill="#303030"/>
<path d="M55.7205 92.0629L88.7686 106.234L87.9534 108.135L54.9054 93.9638L55.7205 92.0629Z" fill="#303030"/>
<path d="M139.575 113.636L59.7963 79.4309" stroke="#303030" stroke-width="0.642342" stroke-linecap="round" stroke-linejoin="round"/>
<path d="M94.8455 124.577L127.894 138.748L127.078 140.649L94.0304 126.478L94.8455 124.577Z" fill="#303030"/>
<path d="M93.0506 128.749L126.099 142.92L125.283 144.821L92.2354 130.65L93.0506 128.749Z" fill="#303030"/>
<path d="M91.2576 132.933L124.306 147.104L123.491 149.005L90.4425 134.833L91.2576 132.933Z" fill="#303030"/>
<path d="M50.0174 105.356L83.0654 119.528L82.2503 121.429L49.2022 107.257L50.0174 105.356Z" fill="#303030"/>
<path d="M48.2273 109.528L81.2754 123.699L80.4603 125.6L47.4122 111.429L48.2273 109.528Z" fill="#303030"/>
<path d="M46.4422 113.714L79.4902 127.885L78.6751 129.786L45.627 115.615L46.4422 113.714Z" fill="#303030"/>
<path d="M130.293 135.289L50.5141 101.084" stroke="#303030" stroke-width="0.642342" stroke-linecap="round" stroke-linejoin="round"/>
<path d="M42.8539 122.065L121.111 155.622L112.968 174.614L34.7101 141.056L42.8539 122.065Z" fill="#303030" stroke="#303030" stroke-width="0.642342" stroke-linecap="round" stroke-linejoin="round"/>
<path d="M98.8196 18.2868L185.002 74.2329L110.068 189.665L23.8856 133.719L98.8196 18.2868Z" fill="white" stroke="#303030" stroke-width="0.642342" stroke-linecap="round" stroke-linejoin="round"/>
<path d="M98.8157 18.2922L184.998 74.2383L157.392 116.764L71.2099 60.8176L98.8157 18.2922Z" fill="white" stroke="#303030" stroke-width="0.642342" stroke-linecap="round" stroke-linejoin="round"/>
<path d="M103.39 72.2458C94.9404 70.8728 89.2039 62.9101 90.577 54.4607C91.95 46.0113 99.9127 40.2747 108.362 41.6478C116.812 43.0208 122.548 50.9835 121.175 59.4329C119.802 67.8824 111.839 73.6189 103.39 72.2458Z" fill="#303030" stroke="#303030" stroke-width="0.642342" stroke-linecap="round" stroke-linejoin="round"/>
<path d="M97.4243 69.9052C95.5104 68.6649 93.8943 67.0169 92.6917 65.0792C91.489 63.1414 90.7296 60.9618 90.4677 58.6963C94.4759 53.4548 101.606 51.926 106.873 55.3433C112.14 58.7605 113.643 65.9034 110.489 71.6973C108.314 72.3808 106.015 72.5746 103.756 72.2647C101.497 71.9549 99.335 71.1491 97.4243 69.9052Z" fill="#5BD793" stroke="#303030" stroke-width="0.642342" stroke-linecap="round" stroke-linejoin="round"/>
<path d="M102.455 60.322C99.1523 57.5083 98.756 52.55 101.57 49.2475C104.383 45.9449 109.342 45.5486 112.644 48.3623C115.947 51.176 116.343 56.1342 113.529 59.4368C110.716 62.7393 105.757 63.1357 102.455 60.322Z" fill="white" stroke="#303030" stroke-width="0.642342" stroke-linecap="round" stroke-linejoin="round"/>
<path d="M137.437 64.8778L167.598 84.4568L165.349 87.9211L135.188 68.3421L137.437 64.8778Z" fill="white" stroke="#303030" stroke-width="0.642342" stroke-linecap="round" stroke-linejoin="round"/>
<path d="M132.037 73.1981L162.197 92.7771L159.948 96.2414L129.788 76.6624L132.037 73.1981Z" fill="white" stroke="#303030" stroke-width="0.642342" stroke-linecap="round" stroke-linejoin="round"/>
<path d="M128.076 80.9846L158.281 100.402L157.164 102.14L126.959 82.722L128.076 80.9846Z" fill="#303030"/>
<path d="M124.832 84.2869L154.992 103.866L153.866 105.601L123.705 86.0218L124.832 84.2869Z" fill="#303030"/>
<path d="M111.101 105.433L141.262 125.012L140.136 126.747L109.975 107.168L111.101 105.433Z" fill="#303030"/>
<path d="M108.626 109.253L138.786 128.832L137.66 130.567L107.499 110.988L108.626 109.253Z" fill="#303030"/>
<path d="M106.15 113.072L136.311 132.651L135.184 134.386L105.024 114.807L106.15 113.072Z" fill="#303030"/>
<path d="M70.192 78.8751L100.353 98.4541L99.2263 100.189L69.0658 80.6099L70.192 78.8751Z" fill="#303030"/>
<path d="M67.7105 82.6908L97.8711 102.27L96.7449 104.005L66.5843 84.4256L67.7105 82.6908Z" fill="#303030"/>
<path d="M65.2349 86.5103L95.3955 106.089L94.2693 107.824L64.1087 88.2452L65.2349 86.5103Z" fill="#303030"/>
<path d="M144.199 121.986L71.3962 74.7163" stroke="#303030" stroke-width="0.642342" stroke-linecap="round" stroke-linejoin="round"/>
<path d="M98.2701 125.202L128.431 144.781L127.304 146.516L97.1439 126.937L98.2701 125.202Z" fill="#303030"/>
<path d="M95.7984 129.016L125.959 148.595L124.833 150.33L94.6722 130.751L95.7984 129.016Z" fill="#303030"/>
<path d="M93.317 132.825L123.478 152.404L122.351 154.139L92.1908 134.56L93.317 132.825Z" fill="#303030"/>
<path d="M57.3609 98.6434L87.5215 118.222L86.3953 119.957L56.2347 100.378L57.3609 98.6434Z" fill="#303030"/>
<path d="M54.8834 102.454L85.0439 122.033L83.9177 123.768L53.7572 104.189L54.8834 102.454Z" fill="#303030"/>
<path d="M52.4146 106.273L82.5752 125.852L81.449 127.587L51.2884 108.008L52.4146 106.273Z" fill="#303030"/>
<path d="M131.373 141.745L58.57 94.4812" stroke="#303030" stroke-width="0.642342" stroke-linecap="round" stroke-linejoin="round"/>
<path d="M47.4522 113.898L118.872 160.261L107.621 177.594L36.2007 131.231L47.4522 113.898Z" fill="#303030" stroke="#303030" stroke-width="0.642342" stroke-linecap="round" stroke-linejoin="round"/>
<path d="M196.409 66.2503L242.093 30.8829L214.909 81.8785C214.267 83.1118 215.969 83.343 217.703 82.251C219.457 81.1526 221.185 81.3967 220.497 82.6428L206.398 108.272C206.174 108.637 205.879 108.954 205.531 109.204L198.645 114.394C198.287 114.647 197.987 114.973 197.765 115.351L169.238 169.532L119.9 205.915L196.409 66.2503Z" fill="#5BD793" stroke="#303030" stroke-width="0.642342" stroke-linecap="round" stroke-linejoin="round"/>
<path opacity="0.25" d="M196.409 66.2503L242.093 30.8829L214.909 81.8785C214.267 83.1118 215.969 83.343 217.703 82.251C219.457 81.1526 221.185 81.3967 220.497 82.6428L206.398 108.272C206.174 108.637 205.879 108.954 205.531 109.204L198.645 114.394C198.287 114.647 197.987 114.973 197.765 115.351L169.238 169.532L119.9 205.915L196.409 66.2503Z" fill="#303030" stroke="#303030" stroke-width="0.642342" stroke-linecap="round" stroke-linejoin="round"/>
</svg>
