<svg width="70" height="71" viewBox="0 0 70 71" fill="none" xmlns="http://www.w3.org/2000/svg">
<path d="M70 35.2131C70 28.2908 67.9473 21.5239 64.1014 15.7682C60.2556 10.0125 54.7893 5.52642 48.3939 2.87735C41.9985 0.228284 34.9612 -0.464833 28.1718 0.88565C21.3825 2.23613 15.1461 5.56956 10.2513 10.4644C5.35642 15.3592 2.023 21.5956 0.672515 28.385C-0.677968 35.1743 0.0151494 42.2116 2.66422 48.6071C5.31328 55.0025 9.79932 60.4687 15.555 64.3146C21.3108 68.1604 28.0777 70.2131 35 70.2131L35 40.2131C35 37.4517 37.2386 35.2131 40 35.2131L70 35.2131Z" fill="#249557"/>
</svg>
