<svg width="1219" height="1219" viewBox="0 0 1219 1219" fill="none" xmlns="http://www.w3.org/2000/svg">
<mask id="path-1-inside-1_957_3" fill="white">
<path d="M387.208 947.436L240 332.82L748.615 211L870.434 719.615L479.491 813.25L387.208 947.436Z"/>
</mask>
<path d="M387.208 947.436L240 332.82L748.615 211L870.434 719.615L479.491 813.25L387.208 947.436Z" fill="#5BD893"/>
<path d="M387.208 947.436L384.291 948.135L385.861 954.69L389.68 949.136L387.208 947.436ZM240 332.82L239.301 329.902L236.384 330.601L237.083 333.518L240 332.82ZM748.615 211L751.532 210.301L750.834 207.384L747.916 208.083L748.615 211ZM870.434 719.615L871.133 722.532L874.051 721.833L873.352 718.916L870.434 719.615ZM479.491 813.25L478.793 810.333L477.672 810.601L477.02 811.551L479.491 813.25ZM387.208 947.436L390.126 946.738L242.917 332.121L240 332.82L237.083 333.518L384.291 948.135L387.208 947.436ZM240 332.82L240.699 335.737L749.314 213.917L748.615 211L747.916 208.083L239.301 329.902L240 332.82ZM748.615 211L745.697 211.699L867.517 720.314L870.434 719.615L873.352 718.916L751.532 210.301L748.615 211ZM870.434 719.615L869.736 716.697L478.793 810.333L479.491 813.25L480.19 816.168L871.133 722.532L870.434 719.615ZM479.491 813.25L477.02 811.551L384.737 945.736L387.208 947.436L389.68 949.136L481.963 814.95L479.491 813.25Z" fill="#303030" mask="url(#path-1-inside-1_957_3)"/>
<mask id="path-3-inside-2_957_3" fill="white">
<path d="M454.412 1006.22V374.218H977.412V897.218H575.412L454.412 1006.22Z"/>
</mask>
<path d="M454.412 1006.22V374.218H977.412V897.218H575.412L454.412 1006.22Z" fill="#303030"/>
<path d="M454.412 1006.22H451.412V1012.96L456.42 1008.45L454.412 1006.22ZM454.412 374.218V371.218H451.412V374.218H454.412ZM977.412 374.218H980.412V371.218H977.412V374.218ZM977.412 897.218V900.218H980.412V897.218H977.412ZM575.412 897.218V894.218H574.26L573.404 894.989L575.412 897.218ZM454.412 1006.22H457.412V374.218H454.412H451.412V1006.22H454.412ZM454.412 374.218V377.218H977.412V374.218V371.218H454.412V374.218ZM977.412 374.218H974.412V897.218H977.412H980.412V374.218H977.412ZM977.412 897.218V894.218H575.412V897.218V900.218H977.412V897.218ZM575.412 897.218L573.404 894.989L452.404 1003.99L454.412 1006.22L456.42 1008.45L577.42 899.447L575.412 897.218Z" fill="#303030" mask="url(#path-3-inside-2_957_3)"/>
<mask id="path-5-inside-3_957_3" fill="white">
<path d="M386.412 951.218V319.218H909.412V842.218H507.412L386.412 951.218Z"/>
</mask>
<path d="M386.412 951.218V319.218H909.412V842.218H507.412L386.412 951.218Z" fill="#52AE7B"/>
<path d="M386.412 951.218H383.412V957.958L388.42 953.447L386.412 951.218ZM386.412 319.218V316.218H383.412V319.218H386.412ZM909.412 319.218H912.412V316.218H909.412V319.218ZM909.412 842.218V845.218H912.412V842.218H909.412ZM507.412 842.218V839.218H506.26L505.404 839.989L507.412 842.218ZM386.412 951.218H389.412V319.218H386.412H383.412V951.218H386.412ZM386.412 319.218V322.218H909.412V319.218V316.218H386.412V319.218ZM909.412 319.218H906.412V842.218H909.412H912.412V319.218H909.412ZM909.412 842.218V839.218H507.412V842.218V845.218H909.412V842.218ZM507.412 842.218L505.404 839.989L384.404 948.989L386.412 951.218L388.42 953.447L509.42 844.447L507.412 842.218Z" fill="#303030" mask="url(#path-5-inside-3_957_3)"/>
<mask id="path-7-outside-4_957_3" maskUnits="userSpaceOnUse" x="524.412" y="393.218" width="243" height="385" fill="black">
<rect fill="white" x="524.412" y="393.218" width="243" height="385"/>
<path d="M586.495 729.644C586.495 717.376 590.696 706.874 599.098 698.135C607.668 689.229 620.02 684.776 636.152 684.776C652.284 684.776 664.551 689.229 672.954 698.135C681.524 706.874 685.809 717.376 685.809 729.644C685.809 741.911 681.524 752.498 672.954 761.404C664.551 770.311 652.284 774.764 636.152 774.764C620.356 774.764 608.088 770.311 599.35 761.404C590.78 752.498 586.495 741.911 586.495 729.644ZM527.763 510.597V493.709C527.763 464.973 537.678 441.699 557.507 423.886C577.504 406.073 605.904 397.167 642.706 397.167C682.028 397.167 711.94 404.981 732.442 420.609C753.111 436.069 763.446 456.571 763.446 482.114C763.446 506.816 759.245 525.553 750.842 538.325C742.608 551.096 731.097 564.792 716.309 579.412C701.857 593.359 691.859 604.786 686.313 613.693C680.768 622.599 677.995 632.178 677.995 642.428V648.982H593.552V639.404C593.552 622.263 597.081 607.475 604.139 595.04C611.197 582.436 623.296 568.489 640.437 553.197C654.217 540.425 663.039 530.511 666.904 523.453C670.769 516.227 672.702 506.816 672.702 495.221C672.702 483.458 670.013 474.384 664.635 467.998C659.258 461.444 650.688 458.167 638.925 458.167C626.993 458.167 618.087 462.032 612.205 469.762C606.492 477.492 603.635 489.256 603.635 505.052V510.597H527.763Z"/>
</mask>
<path d="M586.495 729.644C586.495 717.376 590.696 706.874 599.098 698.135C607.668 689.229 620.02 684.776 636.152 684.776C652.284 684.776 664.551 689.229 672.954 698.135C681.524 706.874 685.809 717.376 685.809 729.644C685.809 741.911 681.524 752.498 672.954 761.404C664.551 770.311 652.284 774.764 636.152 774.764C620.356 774.764 608.088 770.311 599.35 761.404C590.78 752.498 586.495 741.911 586.495 729.644ZM527.763 510.597V493.709C527.763 464.973 537.678 441.699 557.507 423.886C577.504 406.073 605.904 397.167 642.706 397.167C682.028 397.167 711.94 404.981 732.442 420.609C753.111 436.069 763.446 456.571 763.446 482.114C763.446 506.816 759.245 525.553 750.842 538.325C742.608 551.096 731.097 564.792 716.309 579.412C701.857 593.359 691.859 604.786 686.313 613.693C680.768 622.599 677.995 632.178 677.995 642.428V648.982H593.552V639.404C593.552 622.263 597.081 607.475 604.139 595.04C611.197 582.436 623.296 568.489 640.437 553.197C654.217 540.425 663.039 530.511 666.904 523.453C670.769 516.227 672.702 506.816 672.702 495.221C672.702 483.458 670.013 474.384 664.635 467.998C659.258 461.444 650.688 458.167 638.925 458.167C626.993 458.167 618.087 462.032 612.205 469.762C606.492 477.492 603.635 489.256 603.635 505.052V510.597H527.763Z" fill="white"/>
<path d="M599.098 698.135L596.936 696.055L596.935 696.056L599.098 698.135ZM672.954 698.135L670.771 700.194L670.791 700.215L670.812 700.236L672.954 698.135ZM672.954 761.404L670.792 759.324L670.782 759.335L670.771 759.346L672.954 761.404ZM599.35 761.404L597.188 763.484L597.198 763.495L597.209 763.505L599.35 761.404ZM527.763 510.597H524.763V513.597H527.763V510.597ZM557.507 423.886L555.511 421.646L555.502 421.654L557.507 423.886ZM732.442 420.609L730.623 422.995L730.634 423.003L730.645 423.012L732.442 420.609ZM750.842 538.325L748.336 536.676L748.329 536.687L748.321 536.699L750.842 538.325ZM716.309 579.412L718.393 581.57L718.406 581.558L718.418 581.545L716.309 579.412ZM677.995 648.982V651.982H680.995V648.982H677.995ZM593.552 648.982H590.552V651.982H593.552V648.982ZM604.139 595.04L606.748 596.521L606.753 596.513L606.757 596.506L604.139 595.04ZM640.437 553.197L642.434 555.435L642.455 555.416L642.476 555.397L640.437 553.197ZM666.904 523.453L669.535 524.894L669.542 524.881L669.549 524.868L666.904 523.453ZM664.635 467.998L662.316 469.901L662.328 469.916L662.341 469.93L664.635 467.998ZM612.205 469.762L609.818 467.946L609.805 467.962L609.793 467.979L612.205 469.762ZM603.635 510.597V513.597H606.635V510.597H603.635ZM586.495 729.644H589.495C589.495 718.141 593.403 708.387 601.26 700.215L599.098 698.135L596.935 696.056C587.989 705.361 583.495 716.611 583.495 729.644H586.495ZM599.098 698.135L601.26 700.215C609.106 692.061 620.575 687.776 636.152 687.776V684.776V681.776C619.465 681.776 606.23 686.397 596.936 696.055L599.098 698.135ZM636.152 684.776V687.776C651.733 687.776 663.1 692.063 670.771 700.194L672.954 698.135L675.136 696.077C666.002 686.395 652.835 681.776 636.152 681.776V684.776ZM672.954 698.135L670.812 700.236C678.831 708.412 682.809 718.16 682.809 729.644H685.809H688.809C688.809 716.593 684.217 705.335 675.095 696.035L672.954 698.135ZM685.809 729.644H682.809C682.809 741.129 678.829 750.972 670.792 759.324L672.954 761.404L675.115 763.484C684.219 754.024 688.809 742.693 688.809 729.644H685.809ZM672.954 761.404L670.771 759.346C663.1 767.477 651.733 771.764 636.152 771.764V774.764V777.764C652.835 777.764 666.002 773.144 675.136 763.463L672.954 761.404ZM636.152 774.764V771.764C620.935 771.764 609.525 767.491 601.491 759.303L599.35 761.404L597.209 763.505C606.652 773.13 619.776 777.764 636.152 777.764V774.764ZM599.35 761.404L601.512 759.324C593.475 750.972 589.495 741.129 589.495 729.644H586.495H583.495C583.495 742.693 588.085 754.024 597.188 763.484L599.35 761.404ZM527.763 510.597H530.763V493.709H527.763H524.763V510.597H527.763ZM527.763 493.709H530.763C530.763 465.75 540.369 443.314 559.512 426.118L557.507 423.886L555.502 421.654C534.986 440.084 524.763 464.196 524.763 493.709H527.763ZM557.507 423.886L559.502 426.126C578.774 408.96 606.363 400.167 642.706 400.167V397.167V394.167C605.445 394.167 576.235 403.187 555.511 421.646L557.507 423.886ZM642.706 397.167V400.167C681.698 400.167 710.855 407.926 730.623 422.995L732.442 420.609L734.26 418.223C713.025 402.036 682.359 394.167 642.706 394.167V397.167ZM732.442 420.609L730.645 423.012C750.566 437.912 760.446 457.528 760.446 482.114H763.446H766.446C766.446 455.614 755.656 434.226 734.238 418.207L732.442 420.609ZM763.446 482.114H760.446C760.446 506.558 756.274 524.61 748.336 536.676L750.842 538.325L753.349 539.974C762.215 526.496 766.446 507.074 766.446 482.114H763.446ZM750.842 538.325L748.321 536.699C740.24 549.233 728.885 562.76 714.2 577.278L716.309 579.412L718.418 581.545C733.309 566.823 744.977 552.959 753.364 539.95L750.842 538.325ZM716.309 579.412L714.226 577.253C699.727 591.246 689.512 602.88 683.767 612.107L686.313 613.693L688.86 615.278C694.205 606.693 703.988 595.472 718.393 581.57L716.309 579.412ZM686.313 613.693L683.767 612.107C677.932 621.478 674.995 631.603 674.995 642.428H677.995H680.995C680.995 632.752 683.603 623.721 688.86 615.278L686.313 613.693ZM677.995 642.428H674.995V648.982H677.995H680.995V642.428H677.995ZM677.995 648.982V645.982H593.552V648.982V651.982H677.995V648.982ZM593.552 648.982H596.552V639.404H593.552H590.552V648.982H593.552ZM593.552 639.404H596.552C596.552 622.679 599.993 608.422 606.748 596.521L604.139 595.04L601.53 593.559C594.17 606.528 590.552 621.847 590.552 639.404H593.552ZM604.139 595.04L606.757 596.506C613.585 584.312 625.413 570.621 642.434 555.435L640.437 553.197L638.44 550.958C621.18 566.357 608.809 580.561 601.522 593.574L604.139 595.04ZM640.437 553.197L642.476 555.397C656.261 542.621 665.414 532.42 669.535 524.894L666.904 523.453L664.273 522.012C660.664 528.602 652.172 538.23 638.398 550.996L640.437 553.197ZM666.904 523.453L669.549 524.868C673.724 517.063 675.702 507.117 675.702 495.221H672.702H669.702C669.702 506.515 667.814 515.39 664.259 522.038L666.904 523.453ZM672.702 495.221H675.702C675.702 483.037 672.918 473.176 666.93 466.065L664.635 467.998L662.341 469.93C667.107 475.591 669.702 483.879 669.702 495.221H672.702ZM664.635 467.998L666.955 466.095C660.81 458.606 651.22 455.167 638.925 455.167V458.167V461.167C650.156 461.167 657.706 464.282 662.316 469.901L664.635 467.998ZM638.925 458.167V455.167C626.294 455.167 616.397 459.299 609.818 467.946L612.205 469.762L614.593 471.579C619.777 464.766 627.692 461.167 638.925 461.167V458.167ZM612.205 469.762L609.793 467.979C603.522 476.463 600.635 488.991 600.635 505.052H603.635H606.635C606.635 489.52 609.462 478.522 614.618 471.546L612.205 469.762ZM603.635 505.052H600.635V510.597H603.635H606.635V505.052H603.635ZM603.635 510.597V507.597H527.763V510.597V513.597H603.635V510.597Z" fill="#303030" mask="url(#path-7-outside-4_957_3)"/>
</svg>
