<svg width="218" height="46" viewBox="0 0 218 46" fill="none" xmlns="http://www.w3.org/2000/svg">
<g id="Logo">
<g id="Group">
<path id="Vector" d="M92.145 20.8689C93.4236 22.6803 94.063 24.918 94.063 27.6883C94.063 29.7128 93.6368 31.8439 92.9974 34.0815C92.6778 35.2536 92.2516 36.2126 91.9319 36.9584C93.9564 35.6798 95.5547 33.5487 96.6202 30.8849C97.7923 28.008 98.0054 25.0245 97.4727 21.8279C96.9399 18.8444 95.5547 16.3937 93.3171 14.3692C91.0795 12.3447 88.3091 11.0661 85.1125 10.4268C80.6373 9.57433 75.949 10.3202 70.8344 12.5578C67.5313 14.0496 63.4823 16.6068 58.7939 20.2296C60.2857 21.7214 61.884 23.3197 63.6954 25.0245C66.0395 23.2131 67.6378 22.041 68.2772 21.6148C70.0886 20.4427 71.6868 19.3772 73.1786 18.6313C76.9079 16.7134 80.6373 16.1806 84.3666 16.7134C87.8829 17.1396 90.4402 18.6313 92.145 20.8689Z" fill="url(#paint0_linear_71_122)"/>
<path id="Vector_2" d="M23.7375 0.943604C19.795 0.943604 16.2788 1.68947 12.9757 3.07466C9.77908 4.45985 7.0087 6.48435 4.87764 9.14818C2.74658 11.7054 1.36139 14.5824 0.615524 17.8855C-0.130347 21.1887 -0.2369 24.4918 0.508971 27.9015C1.36139 32.0571 3.49245 35.7864 6.79559 38.983C10.2053 42.1796 14.0412 44.0975 18.4099 44.7369C19.5819 44.95 20.754 45.0565 21.9261 45.0565C24.5899 45.0565 27.3603 44.6303 30.4503 43.7779C31.6224 43.4582 32.9011 43.032 34.2862 42.4992C35.3518 42.073 36.4173 41.7534 37.5894 41.2206C37.8025 41.1141 38.0156 41.0075 38.2287 41.0075C38.7615 40.7944 39.2942 40.5813 39.827 40.2616C40.2532 40.1551 40.5729 39.942 40.8925 39.7289C40.5729 39.5158 40.3598 39.1961 40.0401 38.983C38.5484 37.5978 37.2697 35.9995 36.3107 34.4012C36.0976 34.5078 35.8845 34.6143 35.6714 34.7209C35.5649 34.7209 35.3518 34.8274 35.2452 34.934C33.86 35.4667 32.5814 35.9995 31.5159 36.4257C30.1307 36.8519 28.9586 37.2781 27.8931 37.5978C24.9096 38.3437 22.1392 38.5568 19.6885 38.2371C16.705 37.8109 14.0412 36.4257 11.697 34.2947C9.35286 32.0571 7.96768 29.6063 7.32836 26.7294C6.90215 24.2787 6.90215 21.9345 7.43491 19.5904C7.96768 17.2462 8.92665 15.2217 10.4184 13.5169C11.9101 11.7055 13.8281 10.2137 16.1723 9.25474C18.5164 8.29576 21.0737 7.76299 23.9506 7.76299C28.1062 7.76299 32.2617 9.14818 36.5239 11.812C37.0566 10.9596 37.6959 10.1072 38.3353 9.25474C39.0811 8.29576 39.9336 7.44334 40.8925 6.59091C35.1387 2.86156 29.4914 0.943604 23.7375 0.943604Z" fill="url(#paint1_linear_71_122)"/>
<path id="Vector_3" d="M43.237 13.4103C42.5976 14.1562 42.0649 15.0086 41.6387 15.861C41.7452 15.9676 41.9583 16.0741 42.0649 16.2872C42.5976 16.82 43.237 17.3528 43.8763 17.8855C45.1549 19.1642 47.0729 21.0821 49.6301 23.7459L51.5481 25.6639C48.3515 27.9015 45.368 29.8194 42.3845 31.5243C43.0239 32.4833 43.8763 33.4422 44.7287 34.2947C45.5811 35.1471 46.5401 35.7864 47.4991 36.4257C50.376 34.7209 53.3595 32.8029 56.4495 30.5653C59.6461 33.5488 62.523 35.7864 65.1869 37.1716C69.0228 39.1961 72.7521 39.942 76.4815 39.5158C79.3584 39.1961 82.0222 38.024 84.4729 36.1061C86.8171 34.1881 88.522 31.8439 89.5875 29.0736C89.0547 29.6063 88.2023 30.1391 87.2433 30.6719C85.2188 31.8439 83.1943 32.6964 81.0633 33.1226C73.8177 34.5078 67.531 32.2702 61.7772 26.3032C60.1789 24.918 58.474 23.2132 56.6626 21.4018L54.425 19.0576C51.6546 16.1807 49.5236 14.0496 48.0318 12.6644C47.7122 12.3448 47.3925 12.0251 47.0729 11.7054C46.7532 11.3858 46.4336 11.0661 46.0073 10.853C45.0484 11.5989 44.0894 12.4513 43.237 13.4103Z" fill="url(#paint2_linear_71_122)"/>
</g>
<g id="Group_2">
<g id="Vector_4" filter="url(#filter0_d_71_122)">
<path d="M115.48 36.6388C113.455 34.7209 112.39 32.057 112.283 28.6473C112.283 27.9015 112.283 26.7294 112.283 25.1311C112.283 23.4262 112.283 22.2542 112.283 21.5083C112.39 18.0986 113.455 15.4348 115.48 13.5168C117.504 11.5989 120.381 10.6399 124.004 10.6399C126.348 10.6399 128.479 11.0661 130.184 11.812C131.995 12.6644 133.274 13.7299 134.233 15.1151C135.192 16.5003 135.725 18.0986 135.725 19.91V20.0166C135.725 20.2297 135.618 20.4428 135.512 20.5493C135.299 20.6559 135.192 20.7624 134.979 20.7624H131.143C130.823 20.7624 130.61 20.6559 130.397 20.5493C130.184 20.4428 130.078 20.1231 129.971 19.8034C129.545 18.0986 128.905 17.0331 127.84 16.2872C126.881 15.6479 125.496 15.2217 123.897 15.2217C120.062 15.2217 118.144 17.3527 117.931 21.6148C117.931 22.3607 117.931 23.4262 117.931 24.918C117.931 26.4097 117.931 27.5818 117.931 28.3277C118.037 32.5898 120.062 34.7209 123.897 34.7209C125.496 34.7209 126.774 34.4012 127.84 33.6553C128.799 33.016 129.545 31.8439 129.971 30.1391C130.078 29.8194 130.184 29.4998 130.397 29.3932C130.61 29.2867 130.823 29.1801 131.143 29.1801H134.979C135.192 29.1801 135.405 29.2867 135.618 29.3932C135.831 29.6063 135.831 29.7129 135.831 30.0325C135.725 31.8439 135.299 33.3357 134.34 34.8274C133.381 36.2126 131.995 37.3847 130.291 38.1305C128.479 38.983 126.455 39.3026 124.111 39.3026C120.381 39.5157 117.504 38.5568 115.48 36.6388Z" fill="#303030"/>
</g>
<g id="Vector_5" filter="url(#filter1_d_71_122)">
<path d="M142.864 36.7454C140.839 34.934 139.774 32.1636 139.667 28.5408C139.667 27.7949 139.667 26.6228 139.667 25.1311C139.667 23.6393 139.667 22.4673 139.667 21.7214C139.774 18.2052 140.839 15.4348 142.97 13.5168C145.101 11.5989 147.872 10.6399 151.388 10.6399C154.904 10.6399 157.674 11.5989 159.805 13.5168C161.937 15.4348 163.002 18.0986 163.109 21.7214C163.109 23.3197 163.215 24.3852 163.215 25.1311C163.215 25.877 163.215 26.9425 163.109 28.5408C163.002 32.1636 161.937 34.934 159.912 36.7454C157.888 38.5568 155.011 39.5157 151.388 39.5157C147.765 39.5157 144.888 38.5568 142.864 36.7454ZM155.65 33.2291C156.715 32.1636 157.248 30.5653 157.355 28.3277C157.355 26.7294 157.461 25.6639 157.461 25.1311C157.461 24.4918 157.461 23.4262 157.355 21.9345C157.248 19.6969 156.715 18.0986 155.65 17.0331C154.584 15.9675 153.199 15.4348 151.494 15.4348C149.683 15.4348 148.298 15.9675 147.232 17.0331C146.167 18.0986 145.634 19.6969 145.527 21.9345C145.527 22.6804 145.527 23.7459 145.527 25.1311C145.527 26.5163 145.527 27.5818 145.527 28.3277C145.527 30.5653 146.167 32.1636 147.232 33.2291C148.298 34.2946 149.683 34.8274 151.494 34.8274C153.199 34.8274 154.584 34.2946 155.65 33.2291Z" fill="#303030"/>
</g>
<g id="Vector_6" filter="url(#filter2_d_71_122)">
<path d="M168.65 38.7699C168.437 38.5568 168.33 38.3437 168.33 38.1306V12.1317C168.33 11.812 168.437 11.5989 168.543 11.3858C168.756 11.1727 168.969 11.0662 169.289 11.0662H186.657C186.977 11.0662 187.19 11.1727 187.403 11.3858C187.616 11.5989 187.723 11.812 187.723 12.1317V15.0086C187.723 15.3283 187.616 15.5414 187.403 15.6479C187.19 15.861 186.977 15.9676 186.657 15.9676H173.871V23.5329H185.911C186.231 23.5329 186.444 23.6394 186.657 23.8525C186.87 24.0656 186.977 24.2787 186.977 24.4918V27.3688C186.977 27.6884 186.87 27.9015 186.657 28.0081C186.444 28.2212 186.231 28.3277 185.911 28.3277H173.871V38.2372C173.871 38.5568 173.764 38.7699 173.551 38.8765C173.338 39.0896 173.125 39.1961 172.805 39.1961H169.396C169.076 39.0896 168.863 38.983 168.65 38.7699Z" fill="#303030"/>
</g>
<g id="Vector_7" filter="url(#filter3_d_71_122)">
<path d="M188.469 38.8764C188.256 38.7698 188.256 38.5567 188.256 38.2371L188.362 37.9174L197.952 12.1316C198.165 11.4923 198.698 11.1726 199.444 11.1726H203.813C204.558 11.1726 204.985 11.4923 205.304 12.1316L214.894 37.9174L215.001 38.2371C215.001 38.4502 214.894 38.6633 214.788 38.8764C214.574 39.0895 214.468 39.0895 214.255 39.0895H210.739C210.206 39.0895 209.78 38.8764 209.566 38.3436L207.755 33.5487H195.928L194.116 38.3436C193.903 38.8764 193.477 39.0895 192.944 39.0895H189.428C188.895 39.0895 188.682 38.9829 188.469 38.8764ZM197.1 28.8604H206.157L201.682 16.5003L197.1 28.8604Z" fill="#303030"/>
</g>
</g>
</g>
<defs>
<filter id="filter0_d_71_122" x="110.003" y="10.6399" width="28.1083" height="33.2524" filterUnits="userSpaceOnUse" color-interpolation-filters="sRGB">
<feFlood flood-opacity="0" result="BackgroundImageFix"/>
<feColorMatrix in="SourceAlpha" type="matrix" values="0 0 0 0 0 0 0 0 0 0 0 0 0 0 0 0 0 0 127 0" result="hardAlpha"/>
<feOffset dy="2.28023"/>
<feGaussianBlur stdDeviation="1.14012"/>
<feComposite in2="hardAlpha" operator="out"/>
<feColorMatrix type="matrix" values="0 0 0 0 0.807843 0 0 0 0 0.819608 0 0 0 0 0.839216 0 0 0 0.18 0"/>
<feBlend mode="normal" in2="BackgroundImageFix" result="effect1_dropShadow_71_122"/>
<feBlend mode="normal" in="SourceGraphic" in2="effect1_dropShadow_71_122" result="shape"/>
</filter>
<filter id="filter1_d_71_122" x="137.387" y="10.6399" width="28.1083" height="33.4362" filterUnits="userSpaceOnUse" color-interpolation-filters="sRGB">
<feFlood flood-opacity="0" result="BackgroundImageFix"/>
<feColorMatrix in="SourceAlpha" type="matrix" values="0 0 0 0 0 0 0 0 0 0 0 0 0 0 0 0 0 0 127 0" result="hardAlpha"/>
<feOffset dy="2.28023"/>
<feGaussianBlur stdDeviation="1.14012"/>
<feComposite in2="hardAlpha" operator="out"/>
<feColorMatrix type="matrix" values="0 0 0 0 0.807843 0 0 0 0 0.819608 0 0 0 0 0.839216 0 0 0 0.18 0"/>
<feBlend mode="normal" in2="BackgroundImageFix" result="effect1_dropShadow_71_122"/>
<feBlend mode="normal" in="SourceGraphic" in2="effect1_dropShadow_71_122" result="shape"/>
</filter>
<filter id="filter2_d_71_122" x="166.05" y="11.0662" width="23.953" height="32.6903" filterUnits="userSpaceOnUse" color-interpolation-filters="sRGB">
<feFlood flood-opacity="0" result="BackgroundImageFix"/>
<feColorMatrix in="SourceAlpha" type="matrix" values="0 0 0 0 0 0 0 0 0 0 0 0 0 0 0 0 0 0 127 0" result="hardAlpha"/>
<feOffset dy="2.28023"/>
<feGaussianBlur stdDeviation="1.14012"/>
<feComposite in2="hardAlpha" operator="out"/>
<feColorMatrix type="matrix" values="0 0 0 0 0.807843 0 0 0 0 0.819608 0 0 0 0 0.839216 0 0 0 0.18 0"/>
<feBlend mode="normal" in2="BackgroundImageFix" result="effect1_dropShadow_71_122"/>
<feBlend mode="normal" in="SourceGraphic" in2="effect1_dropShadow_71_122" result="shape"/>
</filter>
<filter id="filter3_d_71_122" x="185.976" y="11.1726" width="31.3056" height="32.4772" filterUnits="userSpaceOnUse" color-interpolation-filters="sRGB">
<feFlood flood-opacity="0" result="BackgroundImageFix"/>
<feColorMatrix in="SourceAlpha" type="matrix" values="0 0 0 0 0 0 0 0 0 0 0 0 0 0 0 0 0 0 127 0" result="hardAlpha"/>
<feOffset dy="2.28023"/>
<feGaussianBlur stdDeviation="1.14012"/>
<feComposite in2="hardAlpha" operator="out"/>
<feColorMatrix type="matrix" values="0 0 0 0 0.807843 0 0 0 0 0.819608 0 0 0 0 0.839216 0 0 0 0.18 0"/>
<feBlend mode="normal" in2="BackgroundImageFix" result="effect1_dropShadow_71_122"/>
<feBlend mode="normal" in="SourceGraphic" in2="effect1_dropShadow_71_122" result="shape"/>
</filter>
<linearGradient id="paint0_linear_71_122" x1="78.2715" y1="9.97306" x2="78.2715" y2="36.8747" gradientUnits="userSpaceOnUse">
<stop stop-color="#A5FA02"/>
<stop offset="1" stop-color="#037B6D"/>
</linearGradient>
<linearGradient id="paint1_linear_71_122" x1="20.4463" y1="0.943604" x2="20.4463" y2="45.0565" gradientUnits="userSpaceOnUse">
<stop stop-color="#A5FA02"/>
<stop offset="1" stop-color="#037B6D"/>
</linearGradient>
<linearGradient id="paint2_linear_71_122" x1="65.6131" y1="10.853" x2="65.6131" y2="39.5135" gradientUnits="userSpaceOnUse">
<stop stop-color="#A5FA02"/>
<stop offset="1" stop-color="#037B6D"/>
</linearGradient>
</defs>
</svg>
